<!--?xml version="1.0" encoding="utf-8"?-->
<!-- Generator: Adobe Illustrator 22.0.1, SVG Export Plug-In . SVG Version: 6.00 Build 0)  -->
<svg version="1.1" id="Layer_1" xmlns="http://www.w3.org/2000/svg" xmlns:xlink="http://www.w3.org/1999/xlink" x="0px" y="0px" viewBox="0 0 371.9 554.4" style="" xml:space="preserve">
<style type="text/css">
	.st0{fill:none;stroke:#FFFFFF;stroke-width:3;stroke-miterlimit:10;}
</style>
<g>
	<path class="st0 rmxCRDgt_0" d="M27.3,151.2h319.5c13,0,23.6-10.6,23.6-23.6v-5.5c0-13-10.6-23.6-23.6-23.6H27.3c-13,0-23.6,10.6-23.6,23.6
		v5.5C3.7,140.6,14.3,151.2,27.3,151.2z"></path>
	<path class="st0 rmxCRDgt_1" d="M27.3,151.2h319.5c13,0,23.6-10.6,23.6-23.6v-5.5c0-13-10.6-23.6-23.6-23.6H27.3c-13,0-23.6,10.6-23.6,23.6
		v5.5C3.7,140.6,14.3,151.2,27.3,151.2z"></path>
	<path class="st0 rmxCRDgt_2" d="M82.1,54.1h209.8c13,0,23.6-10.6,23.6-23.6V25c0-13-10.6-23.6-23.6-23.6H82.1c-13,0-23.6,10.6-23.6,23.6v5.5
		C58.5,43.5,69.1,54.1,82.1,54.1z"></path>
	<path class="st0 rmxCRDgt_3" d="M82.1,54.1h209.8c13,0,23.6-10.6,23.6-23.6V25c0-13-10.6-23.6-23.6-23.6H82.1c-13,0-23.6,10.6-23.6,23.6v5.5
		C58.5,43.5,69.1,54.1,82.1,54.1z"></path>
	<path class="st0 rmxCRDgt_4" d="M187,181.7C85.3,181.7,2.6,264.5,2.6,366.1c0,101.7,82.7,184.4,184.4,184.4c101.7,0,184.4-82.7,184.4-184.4
		C371.4,264.5,288.7,181.7,187,181.7z M187,507.7c-78,0-141.5-63.5-141.5-141.5c0-78,63.5-141.5,141.5-141.5s141.5,63.5,141.5,141.5
		C328.5,444.2,265,507.7,187,507.7z"></path>
	<path class="st0 rmxCRDgt_5" d="M187,181.7C85.3,181.7,2.6,264.5,2.6,366.1c0,101.7,82.7,184.4,184.4,184.4c101.7,0,184.4-82.7,184.4-184.4
		C371.4,264.5,288.7,181.7,187,181.7z M187,507.7c-78,0-141.5-63.5-141.5-141.5c0-78,63.5-141.5,141.5-141.5s141.5,63.5,141.5,141.5
		C328.5,444.2,265,507.7,187,507.7z"></path>
	<path class="st0 rmxCRDgt_6" d="M187,270.2c-5.3,0-9.6,4.3-9.6,9.6c0,5.3,4.3,22.1,9.6,22.1s9.6-16.7,9.6-22.1
		C196.6,274.5,192.3,270.2,187,270.2z"></path>
	<path class="st0 rmxCRDgt_7" d="M187,270.2c-5.3,0-9.6,4.3-9.6,9.6c0,5.3,4.3,22.1,9.6,22.1s9.6-16.7,9.6-22.1
		C196.6,274.5,192.3,270.2,187,270.2z"></path>
	<path class="st0 rmxCRDgt_8" d="M187,430.4c-5.3,0-9.6,16.7-9.6,22.1c0,5.3,4.3,9.6,9.6,9.6s9.6-4.3,9.6-9.6
		C196.6,447.1,192.3,430.4,187,430.4z"></path>
	<path class="st0 rmxCRDgt_9" d="M187,430.4c-5.3,0-9.6,16.7-9.6,22.1c0,5.3,4.3,9.6,9.6,9.6s9.6-4.3,9.6-9.6
		C196.6,447.1,192.3,430.4,187,430.4z"></path>
	<path class="st0 rmxCRDgt_10" d="M137.3,316.5c-3.8,3.8-3.8,9.9,0,13.6c3.8,3.8,18.7,12.5,22.4,8.8c3.8-3.8-5-18.7-8.8-22.4
		C147.2,312.7,141.1,312.7,137.3,316.5z"></path>
	<path class="st0 rmxCRDgt_11" d="M137.3,316.5c-3.8,3.8-3.8,9.9,0,13.6c3.8,3.8,18.7,12.5,22.4,8.8c3.8-3.8-5-18.7-8.8-22.4
		C147.2,312.7,141.1,312.7,137.3,316.5z"></path>
	<path class="st0 rmxCRDgt_12" d="M214.2,393.4c-3.8,3.8,5,18.7,8.8,22.4c3.8,3.8,9.9,3.8,13.6,0c3.8-3.8,3.8-9.9,0-13.6
		C232.9,398.4,218,389.6,214.2,393.4z"></path>
	<path class="st0 rmxCRDgt_13" d="M214.2,393.4c-3.8,3.8,5,18.7,8.8,22.4c3.8,3.8,9.9,3.8,13.6,0c3.8-3.8,3.8-9.9,0-13.6
		C232.9,398.4,218,389.6,214.2,393.4z"></path>
	<path class="st0 rmxCRDgt_14" d="M100.7,356.5c-5.3,0-9.7,4.3-9.7,9.7c0,5.3,4.3,9.6,9.7,9.6c5.3,0,22.1-4.3,22.1-9.6
		C122.8,360.8,106,356.5,100.7,356.5z"></path>
	<path class="st0 rmxCRDgt_15" d="M100.7,356.5c-5.3,0-9.7,4.3-9.7,9.7c0,5.3,4.3,9.6,9.7,9.6c5.3,0,22.1-4.3,22.1-9.6
		C122.8,360.8,106,356.5,100.7,356.5z"></path>
	<path class="st0 rmxCRDgt_16" d="M273.3,356.5c-5.3,0-22.1,4.3-22.1,9.7c0,5.3,16.7,9.6,22.1,9.6c5.3,0,9.7-4.3,9.7-9.6
		C283,360.8,278.6,356.5,273.3,356.5z"></path>
	<path class="st0 rmxCRDgt_17" d="M273.3,356.5c-5.3,0-22.1,4.3-22.1,9.7c0,5.3,16.7,9.6,22.1,9.6c5.3,0,9.7-4.3,9.7-9.6
		C283,360.8,278.6,356.5,273.3,356.5z"></path>
	<path class="st0 rmxCRDgt_18" d="M137.3,402.1c-3.8,3.8-3.8,9.9,0,13.6c3.8,3.8,9.9,3.8,13.6,0c3.8-3.8,12.5-18.7,8.8-22.4
		C156,389.6,141.1,398.4,137.3,402.1z"></path>
	<path class="st0 rmxCRDgt_19" d="M137.3,402.1c-3.8,3.8-3.8,9.9,0,13.6c3.8,3.8,9.9,3.8,13.6,0c3.8-3.8,12.5-18.7,8.8-22.4
		C156,389.6,141.1,398.4,137.3,402.1z"></path>
	<path class="st0 rmxCRDgt_20" d="M223,316.5c-3.8,3.8-12.5,18.7-8.8,22.4c3.8,3.8,18.7-5,22.4-8.8c3.8-3.8,3.8-9.9,0-13.6
		C232.9,312.7,226.8,312.7,223,316.5z"></path>
	<path class="st0 rmxCRDgt_21" d="M223,316.5c-3.8,3.8-12.5,18.7-8.8,22.4c3.8,3.8,18.7-5,22.4-8.8c3.8-3.8,3.8-9.9,0-13.6
		C232.9,312.7,226.8,312.7,223,316.5z"></path>
</g>
<style>.rmxCRDgt_0{stroke-dasharray:799 801;stroke-dashoffset:800;animation:rmxCRDgt_draw_0 6200ms ease-in-out 0ms infinite,rmxCRDgt_fade 6200ms linear 0ms infinite;}.rmxCRDgt_1{stroke-dasharray:799 801;stroke-dashoffset:800;animation:rmxCRDgt_draw_1 6200ms ease-in-out 0ms infinite,rmxCRDgt_fade 6200ms linear 0ms infinite;}.rmxCRDgt_2{stroke-dasharray:579 581;stroke-dashoffset:580;animation:rmxCRDgt_draw_2 6200ms ease-in-out 0ms infinite,rmxCRDgt_fade 6200ms linear 0ms infinite;}.rmxCRDgt_3{stroke-dasharray:579 581;stroke-dashoffset:580;animation:rmxCRDgt_draw_3 6200ms ease-in-out 0ms infinite,rmxCRDgt_fade 6200ms linear 0ms infinite;}.rmxCRDgt_4{stroke-dasharray:2048 2050;stroke-dashoffset:2049;animation:rmxCRDgt_draw_4 6200ms ease-in-out 0ms infinite,rmxCRDgt_fade 6200ms linear 0ms infinite;}.rmxCRDgt_5{stroke-dasharray:2048 2050;stroke-dashoffset:2049;animation:rmxCRDgt_draw_5 6200ms ease-in-out 0ms infinite,rmxCRDgt_fade 6200ms linear 0ms infinite;}.rmxCRDgt_6{stroke-dasharray:81 83;stroke-dashoffset:82;animation:rmxCRDgt_draw_6 6200ms ease-in-out 0ms infinite,rmxCRDgt_fade 6200ms linear 0ms infinite;}.rmxCRDgt_7{stroke-dasharray:81 83;stroke-dashoffset:82;animation:rmxCRDgt_draw_7 6200ms ease-in-out 0ms infinite,rmxCRDgt_fade 6200ms linear 0ms infinite;}.rmxCRDgt_8{stroke-dasharray:81 83;stroke-dashoffset:82;animation:rmxCRDgt_draw_8 6200ms ease-in-out 0ms infinite,rmxCRDgt_fade 6200ms linear 0ms infinite;}.rmxCRDgt_9{stroke-dasharray:81 83;stroke-dashoffset:82;animation:rmxCRDgt_draw_9 6200ms ease-in-out 0ms infinite,rmxCRDgt_fade 6200ms linear 0ms infinite;}.rmxCRDgt_10{stroke-dasharray:81 83;stroke-dashoffset:82;animation:rmxCRDgt_draw_10 6200ms ease-in-out 0ms infinite,rmxCRDgt_fade 6200ms linear 0ms infinite;}.rmxCRDgt_11{stroke-dasharray:81 83;stroke-dashoffset:82;animation:rmxCRDgt_draw_11 6200ms ease-in-out 0ms infinite,rmxCRDgt_fade 6200ms linear 0ms infinite;}.rmxCRDgt_12{stroke-dasharray:81 83;stroke-dashoffset:82;animation:rmxCRDgt_draw_12 6200ms ease-in-out 0ms infinite,rmxCRDgt_fade 6200ms linear 0ms infinite;}.rmxCRDgt_13{stroke-dasharray:81 83;stroke-dashoffset:82;animation:rmxCRDgt_draw_13 6200ms ease-in-out 0ms infinite,rmxCRDgt_fade 6200ms linear 0ms infinite;}.rmxCRDgt_14{stroke-dasharray:81 83;stroke-dashoffset:82;animation:rmxCRDgt_draw_14 6200ms ease-in-out 0ms infinite,rmxCRDgt_fade 6200ms linear 0ms infinite;}.rmxCRDgt_15{stroke-dasharray:81 83;stroke-dashoffset:82;animation:rmxCRDgt_draw_15 6200ms ease-in-out 0ms infinite,rmxCRDgt_fade 6200ms linear 0ms infinite;}.rmxCRDgt_16{stroke-dasharray:81 83;stroke-dashoffset:82;animation:rmxCRDgt_draw_16 6200ms ease-in-out 0ms infinite,rmxCRDgt_fade 6200ms linear 0ms infinite;}.rmxCRDgt_17{stroke-dasharray:81 83;stroke-dashoffset:82;animation:rmxCRDgt_draw_17 6200ms ease-in-out 0ms infinite,rmxCRDgt_fade 6200ms linear 0ms infinite;}.rmxCRDgt_18{stroke-dasharray:81 83;stroke-dashoffset:82;animation:rmxCRDgt_draw_18 6200ms ease-in-out 0ms infinite,rmxCRDgt_fade 6200ms linear 0ms infinite;}.rmxCRDgt_19{stroke-dasharray:81 83;stroke-dashoffset:82;animation:rmxCRDgt_draw_19 6200ms ease-in-out 0ms infinite,rmxCRDgt_fade 6200ms linear 0ms infinite;}.rmxCRDgt_20{stroke-dasharray:81 83;stroke-dashoffset:82;animation:rmxCRDgt_draw_20 6200ms ease-in-out 0ms infinite,rmxCRDgt_fade 6200ms linear 0ms infinite;}.rmxCRDgt_21{stroke-dasharray:81 83;stroke-dashoffset:82;animation:rmxCRDgt_draw_21 6200ms ease-in-out 0ms infinite,rmxCRDgt_fade 6200ms linear 0ms infinite;}@keyframes rmxCRDgt_draw{100%{stroke-dashoffset:0;}}@keyframes rmxCRDgt_fade{0%{stroke-opacity:1;}93.54838709677419%{stroke-opacity:1;}100%{stroke-opacity:0;}}@keyframes rmxCRDgt_draw_0{12.903225806451612%{stroke-dashoffset: 800}34.40860215053764%{ stroke-dashoffset: 0;}100%{ stroke-dashoffset: 0;}}@keyframes rmxCRDgt_draw_1{13.415258576548897%{stroke-dashoffset: 800}34.920634920634924%{ stroke-dashoffset: 0;}100%{ stroke-dashoffset: 0;}}@keyframes rmxCRDgt_draw_2{13.927291346646186%{stroke-dashoffset: 580}35.43266769073221%{ stroke-dashoffset: 0;}100%{ stroke-dashoffset: 0;}}@keyframes rmxCRDgt_draw_3{14.439324116743471%{stroke-dashoffset: 580}35.944700460829495%{ stroke-dashoffset: 0;}100%{ stroke-dashoffset: 0;}}@keyframes rmxCRDgt_draw_4{14.951356886840758%{stroke-dashoffset: 2049}36.45673323092678%{ stroke-dashoffset: 0;}100%{ stroke-dashoffset: 0;}}@keyframes rmxCRDgt_draw_5{15.463389656938043%{stroke-dashoffset: 2049}36.968766001024065%{ stroke-dashoffset: 0;}100%{ stroke-dashoffset: 0;}}@keyframes rmxCRDgt_draw_6{15.97542242703533%{stroke-dashoffset: 82}37.48079877112136%{ stroke-dashoffset: 0;}100%{ stroke-dashoffset: 0;}}@keyframes rmxCRDgt_draw_7{16.48745519713262%{stroke-dashoffset: 82}37.99283154121864%{ stroke-dashoffset: 0;}100%{ stroke-dashoffset: 0;}}@keyframes rmxCRDgt_draw_8{16.999487967229904%{stroke-dashoffset: 82}38.50486431131593%{ stroke-dashoffset: 0;}100%{ stroke-dashoffset: 0;}}@keyframes rmxCRDgt_draw_9{17.511520737327192%{stroke-dashoffset: 82}39.01689708141321%{ stroke-dashoffset: 0;}100%{ stroke-dashoffset: 0;}}@keyframes rmxCRDgt_draw_10{18.023553507424474%{stroke-dashoffset: 82}39.528929851510505%{ stroke-dashoffset: 0;}100%{ stroke-dashoffset: 0;}}@keyframes rmxCRDgt_draw_11{18.53558627752176%{stroke-dashoffset: 82}40.04096262160779%{ stroke-dashoffset: 0;}100%{ stroke-dashoffset: 0;}}@keyframes rmxCRDgt_draw_12{19.047619047619047%{stroke-dashoffset: 82}40.552995391705075%{ stroke-dashoffset: 0;}100%{ stroke-dashoffset: 0;}}@keyframes rmxCRDgt_draw_13{19.559651817716333%{stroke-dashoffset: 82}41.06502816180235%{ stroke-dashoffset: 0;}100%{ stroke-dashoffset: 0;}}@keyframes rmxCRDgt_draw_14{20.071684587813618%{stroke-dashoffset: 82}41.57706093189964%{ stroke-dashoffset: 0;}100%{ stroke-dashoffset: 0;}}@keyframes rmxCRDgt_draw_15{20.583717357910906%{stroke-dashoffset: 82}42.08909370199693%{ stroke-dashoffset: 0;}100%{ stroke-dashoffset: 0;}}@keyframes rmxCRDgt_draw_16{21.09575012800819%{stroke-dashoffset: 82}42.601126472094215%{ stroke-dashoffset: 0;}100%{ stroke-dashoffset: 0;}}@keyframes rmxCRDgt_draw_17{21.60778289810548%{stroke-dashoffset: 82}43.11315924219151%{ stroke-dashoffset: 0;}100%{ stroke-dashoffset: 0;}}@keyframes rmxCRDgt_draw_18{22.119815668202765%{stroke-dashoffset: 82}43.625192012288785%{ stroke-dashoffset: 0;}100%{ stroke-dashoffset: 0;}}@keyframes rmxCRDgt_draw_19{22.63184843830005%{stroke-dashoffset: 82}44.13722478238607%{ stroke-dashoffset: 0;}100%{ stroke-dashoffset: 0;}}@keyframes rmxCRDgt_draw_20{23.143881208397335%{stroke-dashoffset: 82}44.649257552483355%{ stroke-dashoffset: 0;}100%{ stroke-dashoffset: 0;}}@keyframes rmxCRDgt_draw_21{23.65591397849462%{stroke-dashoffset: 82}45.16129032258064%{ stroke-dashoffset: 0;}100%{ stroke-dashoffset: 0;}}</style></svg>
